<mxfile host="app.diagrams.net" modified="2024-05-31T23:48:35.863Z" agent="Mozilla/5.0 (X11; Ubuntu; Linux x86_64; rv:126.0) Gecko/20100101 Firefox/126.0" etag="ZW2HpNt68CZG8AwTmQTY" version="24.4.13" type="google">
  <diagram name="Page-1" id="e7e014a7-5840-1c2e-5031-d8a46d1fe8dd">
    <mxGraphModel grid="1" page="1" gridSize="10" guides="1" tooltips="1" connect="1" arrows="1" fold="1" pageScale="1" pageWidth="1169" pageHeight="826" background="none" math="0" shadow="0">
      <root>
        <mxCell id="0" />
        <mxCell id="1" parent="0" />
        <mxCell id="G_9vNtIBfdXm7TEs7A3H-42" style="edgeStyle=orthogonalEdgeStyle;rounded=0;orthogonalLoop=1;jettySize=auto;html=1;strokeColor=#ed333b;entryX=0.5;entryY=0;entryDx=0;entryDy=0;" edge="1" parent="1" source="G_9vNtIBfdXm7TEs7A3H-41" target="21">
          <mxGeometry relative="1" as="geometry" />
        </mxCell>
        <mxCell id="G_9vNtIBfdXm7TEs7A3H-41" value="" style="ellipse;shape=startState;fillColor=#000000;strokeColor=#ff0000;" vertex="1" parent="1">
          <mxGeometry x="562.5" y="20" width="30" height="30" as="geometry" />
        </mxCell>
        <mxCell id="G_9vNtIBfdXm7TEs7A3H-45" style="edgeStyle=orthogonalEdgeStyle;rounded=0;orthogonalLoop=1;jettySize=auto;html=1;entryX=0.5;entryY=0;entryDx=0;entryDy=0;strokeColor=#FF3333;" edge="1" parent="1" source="21" target="G_9vNtIBfdXm7TEs7A3H-43">
          <mxGeometry relative="1" as="geometry" />
        </mxCell>
        <mxCell id="G_9vNtIBfdXm7TEs7A3H-48" style="edgeStyle=orthogonalEdgeStyle;rounded=0;orthogonalLoop=1;jettySize=auto;html=1;entryX=0.5;entryY=0;entryDx=0;entryDy=0;strokeColor=#FF3333;" edge="1" parent="1" source="21" target="G_9vNtIBfdXm7TEs7A3H-47">
          <mxGeometry relative="1" as="geometry" />
        </mxCell>
        <mxCell id="21" value="Predictive Mission" style="rhombus;fillColor=#FFFFC0;strokeColor=#ff0000;" vertex="1" parent="1">
          <mxGeometry x="500" y="90" width="155" height="70" as="geometry" />
        </mxCell>
        <mxCell id="G_9vNtIBfdXm7TEs7A3H-55" style="edgeStyle=orthogonalEdgeStyle;rounded=0;orthogonalLoop=1;jettySize=auto;html=1;entryX=0;entryY=0.5;entryDx=0;entryDy=0;exitX=0.5;exitY=1;exitDx=0;exitDy=0;strokeColor=#FF3333;" edge="1" parent="1" source="G_9vNtIBfdXm7TEs7A3H-43" target="G_9vNtIBfdXm7TEs7A3H-54">
          <mxGeometry relative="1" as="geometry" />
        </mxCell>
        <mxCell id="G_9vNtIBfdXm7TEs7A3H-43" value="&lt;div&gt;Read Pre-Calculated Path From File&lt;/div&gt;" style="rounded=1;whiteSpace=wrap;html=1;fillColor=#FFFFC0;strokeColor=#FF3333;perimeterSpacing=0;arcSize=38;" vertex="1" parent="1">
          <mxGeometry x="350" y="170" width="140" height="50" as="geometry" />
        </mxCell>
        <mxCell id="G_9vNtIBfdXm7TEs7A3H-46" value="Yes" style="text;html=1;align=center;verticalAlign=middle;resizable=0;points=[];autosize=1;strokeColor=none;fillColor=none;perimeterSpacing=0;strokeWidth=0;" vertex="1" parent="1">
          <mxGeometry x="422" y="129" width="40" height="30" as="geometry" />
        </mxCell>
        <mxCell id="G_9vNtIBfdXm7TEs7A3H-51" style="edgeStyle=orthogonalEdgeStyle;rounded=0;orthogonalLoop=1;jettySize=auto;html=1;entryX=1;entryY=0.5;entryDx=0;entryDy=0;exitX=0.5;exitY=1;exitDx=0;exitDy=0;strokeColor=#FF3333;" edge="1" parent="1" source="G_9vNtIBfdXm7TEs7A3H-47" target="G_9vNtIBfdXm7TEs7A3H-50">
          <mxGeometry relative="1" as="geometry" />
        </mxCell>
        <mxCell id="G_9vNtIBfdXm7TEs7A3H-47" value="&lt;div&gt;Get Loc Map&amp;nbsp;&lt;/div&gt;&lt;div&gt;Track Cones&lt;/div&gt;" style="rounded=1;whiteSpace=wrap;html=1;fillColor=#FFFFC0;strokeColor=#FF3333;perimeterSpacing=0;arcSize=38;" vertex="1" parent="1">
          <mxGeometry x="670" y="170" width="140" height="50" as="geometry" />
        </mxCell>
        <mxCell id="G_9vNtIBfdXm7TEs7A3H-49" value="No" style="text;html=1;align=center;verticalAlign=middle;resizable=0;points=[];autosize=1;strokeColor=none;fillColor=none;perimeterSpacing=0;strokeWidth=0;" vertex="1" parent="1">
          <mxGeometry x="700" y="130" width="40" height="30" as="geometry" />
        </mxCell>
        <mxCell id="G_9vNtIBfdXm7TEs7A3H-53" style="edgeStyle=orthogonalEdgeStyle;rounded=0;orthogonalLoop=1;jettySize=auto;html=1;strokeColor=#FF3333;entryX=0.5;entryY=0;entryDx=0;entryDy=0;" edge="1" parent="1" source="G_9vNtIBfdXm7TEs7A3H-50" target="jv7lTM1IHyHSr68E0tBV-21">
          <mxGeometry relative="1" as="geometry">
            <mxPoint x="770" y="330" as="targetPoint" />
          </mxGeometry>
        </mxCell>
        <mxCell id="G_9vNtIBfdXm7TEs7A3H-50" value="Cone Coloring" style="rounded=1;whiteSpace=wrap;html=1;fillColor=#FFFFC0;strokeColor=#FF3333;perimeterSpacing=0;arcSize=38;" vertex="1" parent="1">
          <mxGeometry x="507.5" y="240" width="140" height="50" as="geometry" />
        </mxCell>
        <mxCell id="G_9vNtIBfdXm7TEs7A3H-56" style="edgeStyle=orthogonalEdgeStyle;rounded=0;orthogonalLoop=1;jettySize=auto;html=1;entryX=0.5;entryY=0;entryDx=0;entryDy=0;strokeColor=#FF3333;" edge="1" parent="1" source="G_9vNtIBfdXm7TEs7A3H-52" target="WFpRq_aXOvzAwg-wYuqA-21">
          <mxGeometry relative="1" as="geometry" />
        </mxCell>
        <mxCell id="G_9vNtIBfdXm7TEs7A3H-52" value="Calculate Middle Path (Delaunay Triangulations)" style="rounded=1;whiteSpace=wrap;html=1;fillColor=#FFFFC0;strokeColor=#FF3333;perimeterSpacing=0;arcSize=38;" vertex="1" parent="1">
          <mxGeometry x="507.5" y="405" width="140" height="50" as="geometry" />
        </mxCell>
        <mxCell id="G_9vNtIBfdXm7TEs7A3H-58" value="" style="edgeStyle=orthogonalEdgeStyle;rounded=0;orthogonalLoop=1;jettySize=auto;html=1;strokeColor=#FF3333;" edge="1" parent="1" source="G_9vNtIBfdXm7TEs7A3H-54" target="G_9vNtIBfdXm7TEs7A3H-57">
          <mxGeometry relative="1" as="geometry" />
        </mxCell>
        <mxCell id="G_9vNtIBfdXm7TEs7A3H-54" value="Publish" style="rounded=1;whiteSpace=wrap;html=1;fillColor=#FFFFC0;strokeColor=#FF3333;perimeterSpacing=0;arcSize=38;" vertex="1" parent="1">
          <mxGeometry x="507.5" y="576" width="140" height="50" as="geometry" />
        </mxCell>
        <mxCell id="G_9vNtIBfdXm7TEs7A3H-57" value="" style="ellipse;html=1;shape=endState;fillColor=#000000;strokeColor=#ff0000;" vertex="1" parent="1">
          <mxGeometry x="563" y="676" width="30" height="30" as="geometry" />
        </mxCell>
        <mxCell id="jv7lTM1IHyHSr68E0tBV-23" style="edgeStyle=orthogonalEdgeStyle;rounded=0;orthogonalLoop=1;jettySize=auto;html=1;entryX=0.5;entryY=0;entryDx=0;entryDy=0;strokeColor=#FF3333;" edge="1" parent="1" source="jv7lTM1IHyHSr68E0tBV-21" target="G_9vNtIBfdXm7TEs7A3H-52">
          <mxGeometry relative="1" as="geometry" />
        </mxCell>
        <mxCell id="jv7lTM1IHyHSr68E0tBV-21" value="&lt;div&gt;Average / Smooth&lt;/div&gt;&lt;div&gt;&amp;nbsp;Cone Positions&lt;/div&gt;&amp;nbsp;(Splines)" style="rounded=1;whiteSpace=wrap;html=1;fillColor=#FFFFC0;strokeColor=#FF3333;perimeterSpacing=0;arcSize=38;" vertex="1" parent="1">
          <mxGeometry x="508" y="322" width="140" height="50" as="geometry" />
        </mxCell>
        <mxCell id="WFpRq_aXOvzAwg-wYuqA-22" style="edgeStyle=orthogonalEdgeStyle;rounded=0;orthogonalLoop=1;jettySize=auto;html=1;entryX=0.5;entryY=0;entryDx=0;entryDy=0;strokeColor=#FF3333;" edge="1" parent="1" source="WFpRq_aXOvzAwg-wYuqA-21" target="G_9vNtIBfdXm7TEs7A3H-54">
          <mxGeometry relative="1" as="geometry" />
        </mxCell>
        <mxCell id="WFpRq_aXOvzAwg-wYuqA-21" value="Smooth Path (Splines)" style="rounded=1;whiteSpace=wrap;html=1;fillColor=#FFFFC0;strokeColor=#FF3333;perimeterSpacing=0;arcSize=38;" vertex="1" parent="1">
          <mxGeometry x="508" y="490" width="140" height="50" as="geometry" />
        </mxCell>
      </root>
    </mxGraphModel>
  </diagram>
</mxfile>
